<svg width="130" height="100" viewBox="0 0 130 100" fill="none" xmlns="http://www.w3.org/2000/svg">
<path d="M90.0252 12.4579C89.3962 11.9728 88.649 11.588 87.8264 11.3255C87.0038 11.0629 86.122 10.9277 85.2314 10.9277C84.3408 10.9277 83.4589 11.0629 82.6364 11.3255C81.8138 11.588 81.0666 11.9728 80.4376 12.4579L35.4251 47.0829C34.923 47.4683 34.5246 47.9262 34.2528 48.4303C33.981 48.9343 33.8411 49.4747 33.8411 50.0204C33.8411 50.5661 33.981 51.1064 34.2528 51.6105C34.5246 52.1145 34.923 52.5724 35.4251 52.9579L80.4376 87.5829C83.0918 89.6245 87.371 89.6245 90.0252 87.5829C92.6793 85.5412 92.6793 82.2495 90.0252 80.2079L50.8085 49.9995L90.0793 19.7912C92.6793 17.7912 92.6793 14.4579 90.0252 12.4579Z" fill="#043B5C" stroke="#043B5C" stroke-width="0.2"/>
</svg>
