<svg width="1378" height="223" viewBox="0 0 1378 223" fill="none" xmlns="http://www.w3.org/2000/svg">
<path d="M1248.69 116.168C1263.69 82.8346 1308.69 82.8346 1323.69 116.168" stroke="black" stroke-width="1.5" stroke-linecap="round" stroke-linejoin="round"/>
<path d="M1286.19 132.834C1284.55 132.834 1282.92 132.511 1281.41 131.882C1279.89 131.254 1278.51 130.334 1277.35 129.173C1276.19 128.012 1275.27 126.634 1274.64 125.118C1274.01 123.601 1273.69 121.976 1273.69 120.334C1273.69 118.692 1274.01 117.067 1274.64 115.55C1275.27 114.034 1276.19 112.656 1277.35 111.495C1278.51 110.334 1279.89 109.414 1281.41 108.785C1282.92 108.157 1284.55 107.834 1286.19 107.834C1289.51 107.834 1292.69 109.151 1295.03 111.495C1297.37 113.839 1298.69 117.019 1298.69 120.334C1298.69 123.649 1297.37 126.829 1295.03 129.173C1292.69 131.517 1289.51 132.834 1286.19 132.834Z" stroke="black" stroke-width="1.5" stroke-linecap="round" stroke-linejoin="round"/>
<rect x="5.78324" y="5.99222" width="1366.32" height="211.454" rx="48.7972" fill="#043B5C" fill-opacity="0.07" stroke="#043B5C" stroke-width="10.8438"/>
</svg>
